<?xml version="1.0" encoding="UTF-8"?>
<svg width="568.32pt" version="1.1" xmlns="http://www.w3.org/2000/svg" height="744.96pt" viewBox="0 0 568.32 744.96" xmlns:xlink="http://www.w3.org/1999/xlink">
 <defs>
  <clipPath id="Clip0">
   <path d="M0 0 L550.02 0 L550.02 701.063 L0 701.063 L0 0 Z" transform="translate(11.1722, 20.4816)"/>
  </clipPath>
 </defs>
 <g id="Background">
  <g id="Group1" clip-path="url(#Clip0)">
   <path style="fill:#000000; fill-rule:evenodd;stroke:none;" d="M0 76.9898 L0 0 L51.9444 0 L51.9444 9.08543 L10.1893 9.08543 L10.1893 32.9281 L46.3246 32.9281 L46.3246 42.0135 L10.1893 42.0135 L10.1893 76.9898 L0 76.9898 Z" transform="translate(293.554, 20.4816)"/>
   <path style="fill:#000000; fill-rule:evenodd;stroke:none;" d="M0 76.9898 L0 0 L10.4519 0 L50.894 60.447 L50.894 0 L60.6631 0 L60.6631 76.9898 L50.2112 76.9898 L9.76913 16.4903 L9.76913 76.9898 L0 76.9898 Z" transform="translate(422.578, 409.647)"/>
   <path style="fill:#000000; fill-rule:evenodd;stroke:none;" d="M0 76.9898 L0 0 L10.1893 0 L10.1893 31.6152 L50.2112 31.6152 L50.2112 0 L60.4005 0 L60.4005 76.9898 L50.2112 76.9898 L50.2112 40.7006 L10.1893 40.7006 L10.1893 76.9898 L0 76.9898 Z" transform="translate(500.791, 409.647)"/>
   <path style="fill:#000000; fill-rule:evenodd;stroke:none;" d="M0 40.8582 C0 28.079 3.43145 18.0746 10.2943 10.8447 C17.1572 3.61491 26.016 0 36.8706 0 C43.9786 0 50.3863 1.69805 56.0937 5.09414 C61.8011 8.49024 66.1517 13.2255 69.1454 19.3 C72.1392 25.3744 73.6361 32.2629 73.6361 39.9654 C73.6361 47.7729 72.0604 54.7576 68.9091 60.9196 C65.7578 67.0816 61.2934 71.7469 55.5159 74.9154 C49.7385 78.0839 43.5059 79.6682 36.818 79.6682 C29.57 79.6682 23.0923 77.9176 17.3848 74.4165 C11.6774 70.9153 7.35311 66.1363 4.41186 60.0794 C1.47062 54.0224 0 47.6153 0 40.8582 Z M10.5044 41.0157 C10.5044 50.2937 12.9992 57.6023 17.9888 62.9415 C22.9785 68.2807 29.2373 70.9504 36.7655 70.9504 C44.4338 70.9504 50.7452 68.2545 55.6998 62.8628 C60.6544 57.471 63.1317 49.8211 63.1317 39.9129 C63.1317 33.6458 62.0725 28.1753 59.9541 23.5013 C57.8357 18.8273 54.7369 15.2036 50.6576 12.6303 C46.5784 10.057 42.0002 8.77033 36.9231 8.77033 C29.71 8.77033 23.5037 11.2474 18.304 16.2015 C13.1043 21.1556 10.5044 29.427 10.5044 41.0157 Z" transform="translate(280.806, 641.877)"/>
   <path style="fill:#000000; fill-rule:evenodd;stroke:none;" d="M0 76.9898 L0 0 L10.4519 0 L50.894 60.447 L50.894 0 L60.6631 0 L60.6631 76.9898 L50.2112 76.9898 L9.76913 16.4903 L9.76913 76.9898 L0 76.9898 Z" transform="translate(152.945, 409.647)"/>
   <path style="fill:#000000; fill-rule:evenodd;stroke:none;" d="M0 76.9898 L0 0 L10.1893 0 L10.1893 31.6152 L50.2112 31.6152 L50.2112 0 L60.4005 0 L60.4005 76.9898 L50.2112 76.9898 L50.2112 40.7006 L10.1893 40.7006 L10.1893 76.9898 L0 76.9898 Z" transform="translate(75.5719, 409.647)"/>
   <path style="fill:#000000; fill-rule:evenodd;stroke:none;" d="M0 40.8582 C0 28.079 3.43145 18.0746 10.2943 10.8447 C17.1572 3.61491 26.016 0 36.8706 0 C43.9786 0 50.3863 1.69805 56.0937 5.09414 C61.8011 8.49024 66.1517 13.2255 69.1454 19.3 C72.1392 25.3744 73.6361 32.2629 73.6361 39.9654 C73.6361 47.7729 72.0604 54.7576 68.9091 60.9196 C65.7578 67.0816 61.2934 71.7469 55.5159 74.9154 C49.7385 78.0839 43.5059 79.6682 36.818 79.6682 C29.57 79.6682 23.0923 77.9176 17.3848 74.4165 C11.6774 70.9153 7.35311 66.1363 4.41186 60.0794 C1.47062 54.0224 0 47.6153 0 40.8582 Z M10.5044 41.0157 C10.5044 50.2937 12.9992 57.6023 17.9888 62.9415 C22.9785 68.2807 29.2373 70.9504 36.7655 70.9504 C44.4338 70.9504 50.7452 68.2545 55.6998 62.8628 C60.6544 57.471 63.1317 49.8211 63.1317 39.9129 C63.1317 33.6458 62.0725 28.1753 59.9541 23.5013 C57.8357 18.8273 54.7369 15.2036 50.6576 12.6303 C46.5784 10.057 42.0002 8.77033 36.9231 8.77033 C29.71 8.77033 23.5037 11.2474 18.304 16.2015 C13.1043 21.1556 10.5044 29.427 10.5044 41.0157 Z" transform="translate(11.1722, 174.926)"/>
   <path style="fill:none;stroke:#000000; stroke-width:7.68286; stroke-linecap:round; stroke-linejoin:bevel; stroke-dasharray:none;" d="M0 0 L0 100.592 " transform="translate(316.694, 116.197)"/>
   <path style="fill:none;stroke:#000000; stroke-width:7.68286; stroke-linecap:round; stroke-linejoin:bevel; stroke-dasharray:none;" d="M0 0 L134.697 77.7851 " transform="translate(316.694, 216.79)"/>
   <path style="fill:none;stroke:#000000; stroke-width:7.68286; stroke-linecap:round; stroke-linejoin:bevel; stroke-dasharray:none;" d="M0 0 L114.048 65.7812 " transform="translate(312.852, 247.52)"/>
   <path style="fill:none;stroke:#000000; stroke-width:7.68286; stroke-linecap:round; stroke-linejoin:bevel; stroke-dasharray:none;" d="M0 0 L0 100.352 " transform="translate(451.391, 294.575)"/>
   <path style="fill:none;stroke:#000000; stroke-width:7.68286; stroke-linecap:round; stroke-linejoin:bevel; stroke-dasharray:none;" d="M83.7954 0 L0 48.2555 " transform="translate(316.694, 479.915)"/>
   <path style="fill:none;stroke:#000000; stroke-width:7.68286; stroke-linecap:round; stroke-linejoin:bevel; stroke-dasharray:none;" d="M0 0 L0 100.352 " transform="translate(302.528, 528.17)"/>
   <path style="fill:none;stroke:#000000; stroke-width:7.68286; stroke-linecap:round; stroke-linejoin:bevel; stroke-dasharray:none;" d="M0 0 L0 100.352 " transform="translate(331.1, 528.17)"/>
   <path style="fill:none;stroke:#000000; stroke-width:7.68286; stroke-linecap:round; stroke-linejoin:bevel; stroke-dasharray:none;" d="M84.0355 48.4956 L0 0 " transform="translate(232.658, 479.675)"/>
   <path style="fill:none;stroke:#000000; stroke-width:7.68286; stroke-linecap:round; stroke-linejoin:bevel; stroke-dasharray:none;" d="M0 100.352 L0 0 " transform="translate(181.757, 294.575)"/>
   <path style="fill:none;stroke:#000000; stroke-width:7.68286; stroke-linecap:round; stroke-linejoin:bevel; stroke-dasharray:none;" d="M134.937 0 L0 77.7851 " transform="translate(181.757, 216.79)"/>
   <path style="fill:none;stroke:#000000; stroke-width:7.68286; stroke-linecap:round; stroke-linejoin:bevel; stroke-dasharray:none;" d="M87.1568 50.1762 L0 0 " transform="translate(101.803, 232.155)"/>
   <path style="fill:none;stroke:#000000; stroke-width:7.68286; stroke-linecap:round; stroke-linejoin:bevel; stroke-dasharray:none;" d="M72.7507 42.0135 L0 0 " transform="translate(101.803, 265.045)"/>
  </g>
 </g>
</svg>
