<?xml version="1.0" encoding="UTF-8" standalone="no"?>
<!-- Generator: Adobe Illustrator 12.0.1, SVG Export Plug-In . SVG Version: 6.00 Build 51448)  -->
<svg
   xmlns:dc="http://purl.org/dc/elements/1.1/"
   xmlns:cc="http://web.resource.org/cc/"
   xmlns:rdf="http://www.w3.org/1999/02/22-rdf-syntax-ns#"
   xmlns:svg="http://www.w3.org/2000/svg"
   xmlns="http://www.w3.org/2000/svg"
   xmlns:sodipodi="http://sodipodi.sourceforge.net/DTD/sodipodi-0.dtd"
   xmlns:inkscape="http://www.inkscape.org/namespaces/inkscape"
   version="1.1"
   id="Layer_1"
   width="76.31"
   height="89.8"
   viewBox="0 0 76.31 89.8"
   style="overflow:visible;enable-background:new 0 0 76.31 89.8;"
   xml:space="preserve"
   sodipodi:version="0.32"
   inkscape:version="0.44.1"
   sodipodi:docname="Pyrimidin.svg"
   sodipodi:docbase="E:\Eigene Dateien"><metadata
   id="metadata32"><rdf:RDF><cc:Work
       rdf:about=""><dc:format>image/svg+xml</dc:format><dc:type
         rdf:resource="http://purl.org/dc/dcmitype/StillImage" /></cc:Work></rdf:RDF></metadata><defs
   id="defs30" /><sodipodi:namedview
   inkscape:window-height="573"
   inkscape:window-width="925"
   inkscape:pageshadow="2"
   inkscape:pageopacity="0.0"
   guidetolerance="10.0"
   gridtolerance="10.0"
   objecttolerance="10.0"
   borderopacity="1.0"
   bordercolor="#666666"
   pagecolor="#ffffff"
   id="base"
   inkscape:zoom="4.209354"
   inkscape:cx="38.154999"
   inkscape:cy="44.900002"
   inkscape:window-x="132"
   inkscape:window-y="132"
   inkscape:current-layer="Layer_1" />
<g
   id="g3"
   transform="matrix(0.95,0,0,0.95,1.90775,2.245)">
	<path
   d="M 28.428,89.8 L 28.428,72.612 L 30.768,72.612 L 39.772,86.1 L 39.772,72.612 L 41.96,72.612 L 41.96,89.8 L 39.62,89.8 L 30.616,76.311 L 30.616,89.8 L 28.428,89.8 z "
   id="path5" />
</g>
<g
   id="g7"
   transform="matrix(0.95,0,0,0.95,1.90775,2.245)">
	<path
   d="M 62.778,30.3 L 62.778,13.112 L 65.118,13.112 L 74.122,26.6 L 74.122,13.112 L 76.31,13.112 L 76.31,30.3 L 73.97,30.3 L 64.966,16.811 L 64.966,30.3 L 62.778,30.3 z "
   id="path9" />
</g>
<path
   d="M 3.52275,59.2925 L 1.90775,60.195 L 1.90775,21.5775 L 3.52275,22.48 L 3.52275,59.2925 z "
   id="polygon11" />
<path
   d="M 7.5602498,25.2825 L 9.1752499,25.2825 L 9.1752499,56.489998 L 7.5602498,56.489998 L 7.5602498,25.2825 z "
   id="rect13" />
<path
   d="M 26.03775,72.25905 L 25.23025,73.68405 L 1.90775,60.195 L 3.52275,59.2925 L 26.03775,72.25905 z "
   id="polygon15" />
<path
   d="M 67.22025,59.2925 L 68.83525,60.195 L 45.56025,73.63655 L 44.75275,72.25905 L 67.22025,59.2925 z "
   id="polygon17" />
<path
   d="M 61.94775,55.7775 L 62.7562,57.155 L 42.71025,68.745 L 41.90275,67.3675 L 61.94775,55.7775 z "
   id="polygon19" />
<path
   d="M 67.22025,33.1675 L 68.83525,33.1675 L 68.83525,60.195 L 67.22025,59.2925 L 67.22025,33.1675 z "
   id="polygon21" />
<path
   d="M 35.39525,4.09655 L 35.39525,2.245 L 58.7187,15.73405 L 57.91025,17.11155 L 35.39525,4.09655 z "
   id="polygon23" />
<path
   d="M 34.96775,10.415 L 35.77525,9.03655 L 55.8687,20.6275 L 55.06025,22.005 L 34.96775,10.415 z "
   id="polygon25" />
<path
   d="M 3.52275,22.48 L 1.90775,21.5775 L 35.39525,2.245 L 35.39525,4.09655 L 3.52275,22.48 z "
   id="polygon27" />
</svg>