<?xml version="1.0" encoding="UTF-8" standalone="no"?>
<!DOCTYPE svg PUBLIC "-//W3C//DTD SVG 1.1//EN" "http://www.w3.org/Graphics/SVG/1.1/DTD/svg11.dtd">
<svg width="100%" height="100%" viewBox="0 0 91 100" version="1.1" xmlns="http://www.w3.org/2000/svg" xmlns:xlink="http://www.w3.org/1999/xlink" xml:space="preserve" xmlns:serif="http://www.serif.com/" style="fill-rule:evenodd;clip-rule:evenodd;stroke-linejoin:round;stroke-miterlimit:1.41421;">
    <path d="M81.377,85.761C83.981,82.579 84.895,78.152 83.379,74.005L82.006,70.214L90.334,70.214L90.334,0L0,0L0,70.214L48.579,70.214L53.878,84.751C55.382,88.891 58.931,91.703 62.97,92.46L65.46,99.996L86.305,100L81.377,85.761ZM73.798,47.827C69.347,49.446 67.048,54.377 68.67,58.835L71.645,66.301L3.912,66.364L4.16,4.066L86.321,4.058L86.399,66.302L80.635,66.296L73.798,47.827Z" style="fill-rule:nonzero;"/>
    <path d="M49.057,40.152L49.057,45.164L63.7,45.164C64.311,45.164 65.204,45.71 65.204,46.669C65.204,55.201 64.132,59.233 59.636,59.233C54.964,59.233 54.006,49.117 49.057,48.457L49.057,58.126L41.226,58.126L41.226,48.442C36.028,48.833 35.191,59.232 30.338,59.232C25.842,59.232 25.012,55.2 25.012,46.668C25.012,45.71 25.905,45.163 26.52,45.163L41.226,45.163L41.226,40.151L25.998,40.151C25.12,40.151 24.407,39.442 24.407,38.567C24.407,37.692 25.119,36.986 25.998,36.986L41.226,36.986L41.226,31.971L24.085,31.971C23.213,31.971 22.504,31.262 22.504,30.384C22.504,29.512 23.213,28.8 24.085,28.8L41.226,28.8L41.226,23.788L25.137,23.788C24.266,23.788 23.556,23.079 23.556,22.2C23.556,21.325 24.265,20.613 25.137,20.613L41.226,20.613L41.226,15.601L28.626,15.601C27.744,15.601 27.039,14.892 27.039,14.017C27.039,13.142 27.745,12.426 28.626,12.426L41.226,12.426L41.226,9.657L49.057,9.657L49.057,12.428L61.657,12.428C62.532,12.428 63.244,13.144 63.244,14.019C63.244,14.894 62.532,15.603 61.657,15.603L49.057,15.603L49.057,20.615L65.19,20.615C66.065,20.615 66.778,21.327 66.778,22.202C66.778,23.081 66.065,23.79 65.19,23.79L49.057,23.79L49.057,28.802L66.245,28.802C67.117,28.802 67.829,29.514 67.829,30.386C67.829,31.264 67.117,31.973 66.245,31.973L49.057,31.973L49.057,36.988L64.285,36.988C65.164,36.988 65.873,37.694 65.873,38.569C65.873,39.444 65.164,40.153 64.285,40.153L49.057,40.153L49.057,40.152Z" style="fill-rule:nonzero;"/>
</svg>
