<?xml version="1.0" encoding="utf-8"?><!DOCTYPE svg PUBLIC "-//W3C//DTD SVG 1.0//EN" "http://www.w3.org/TR/2001/REC-SVG-20010904/DTD/svg10.dtd"><svg version="1.0" xmlns="http://www.w3.org/2000/svg" xmlns:xlink="http://www.w3.org/1999/xlink" x="0px" y="0px" viewBox="0 0 90.334 100" enable-background="new 0 0 90.334 100" xml:space="preserve"><path d="M81.377,85.761c2.604-3.182,3.518-7.609,2.002-11.756l-1.373-3.791h8.328V0H0v70.214h48.579l5.299,14.537
	c1.504,4.14,5.053,6.952,9.092,7.709l2.49,7.536L86.305,100L81.377,85.761z M73.798,47.827c-4.451,1.619-6.75,6.55-5.128,11.008
	l3.212,8.764H2.615V2.618h85.108v64.98h-6.685L73.798,47.827z"></path><path d="M49.057,40.152v5.012H63.7c0.611,0,1.504,0.546,1.504,1.505c0,8.532-1.072,12.564-5.568,12.564
	c-4.672,0-5.63-10.116-10.579-10.776v9.669h-7.831v-9.684c-5.198,0.391-6.035,10.79-10.888,10.79c-4.496,0-5.326-4.032-5.326-12.564
	c0-0.958,0.893-1.505,1.508-1.505h14.706v-5.012H25.998c-0.878,0-1.591-0.709-1.591-1.584s0.712-1.581,1.591-1.581h15.228v-5.015
	H24.085c-0.872,0-1.581-0.709-1.581-1.587c0-0.872,0.709-1.584,1.581-1.584h17.141v-5.012H25.137c-0.871,0-1.581-0.709-1.581-1.588
	c0-0.875,0.709-1.587,1.581-1.587h16.089v-5.012h-12.6c-0.882,0-1.587-0.709-1.587-1.584s0.706-1.591,1.587-1.591h12.6V9.657h7.831
	v2.771h12.6c0.875,0,1.587,0.716,1.587,1.591s-0.712,1.584-1.587,1.584h-12.6v5.012H65.19c0.875,0,1.588,0.712,1.588,1.587
	c0,0.879-0.713,1.588-1.588,1.588H49.057v5.012h17.188c0.872,0,1.584,0.712,1.584,1.584c0,0.878-0.712,1.587-1.584,1.587H49.057
	v5.015h15.228c0.879,0,1.588,0.706,1.588,1.581s-0.709,1.584-1.588,1.584H49.057z"></path></svg>